<mxfile host="app.diagrams.net" agent="Mozilla/5.0 (Windows NT 10.0; Win64; x64) AppleWebKit/537.36 (KHTML, like Gecko) Chrome/130.0.0.0 Safari/537.36" version="24.8.4">
  <diagram name="Seite-1" id="NsRlUBNrxBf7XNmzEjO-">
    <mxGraphModel dx="1290" dy="563" grid="1" gridSize="10" guides="1" tooltips="1" connect="1" arrows="1" fold="1" page="1" pageScale="1" pageWidth="827" pageHeight="1169" math="0" shadow="0">
      <root>
        <mxCell id="0" />
        <mxCell id="1" parent="0" />
        <mxCell id="WIe7WVRlitWbJ3u8N4tA-7" value="&amp;lt;&amp;lt;interface&amp;gt;&amp;gt;&lt;br&gt;&lt;b&gt;TextFormatter&lt;/b&gt;" style="swimlane;fontStyle=0;align=center;verticalAlign=top;childLayout=stackLayout;horizontal=1;startSize=40;horizontalStack=0;resizeParent=1;resizeParentMax=0;resizeLast=0;collapsible=0;marginBottom=0;html=1;whiteSpace=wrap;" parent="1" vertex="1">
          <mxGeometry x="410" y="110" width="180" height="68" as="geometry" />
        </mxCell>
        <mxCell id="WIe7WVRlitWbJ3u8N4tA-12" value="" style="line;strokeWidth=1;fillColor=none;align=left;verticalAlign=middle;spacingTop=-1;spacingLeft=3;spacingRight=3;rotatable=0;labelPosition=right;points=[];portConstraint=eastwest;" parent="WIe7WVRlitWbJ3u8N4tA-7" vertex="1">
          <mxGeometry y="40" width="180" height="8" as="geometry" />
        </mxCell>
        <mxCell id="WIe7WVRlitWbJ3u8N4tA-16" value="&lt;span style=&quot;text-align: center;&quot;&gt;+ format (text: String): String&lt;/span&gt;" style="text;html=1;strokeColor=none;fillColor=none;align=left;verticalAlign=middle;spacingLeft=4;spacingRight=4;overflow=hidden;rotatable=0;points=[[0,0.5],[1,0.5]];portConstraint=eastwest;whiteSpace=wrap;" parent="WIe7WVRlitWbJ3u8N4tA-7" vertex="1">
          <mxGeometry y="48" width="180" height="20" as="geometry" />
        </mxCell>
        <mxCell id="WIe7WVRlitWbJ3u8N4tA-70" style="edgeStyle=orthogonalEdgeStyle;rounded=0;orthogonalLoop=1;jettySize=auto;html=1;exitX=0.5;exitY=1;exitDx=0;exitDy=0;endArrow=open;endFill=0;" parent="1" source="WIe7WVRlitWbJ3u8N4tA-20" target="WIe7WVRlitWbJ3u8N4tA-7" edge="1">
          <mxGeometry relative="1" as="geometry" />
        </mxCell>
        <mxCell id="WIe7WVRlitWbJ3u8N4tA-20" value="Client" style="fontStyle=1;whiteSpace=wrap;html=1;" parent="1" vertex="1">
          <mxGeometry x="430" y="20" width="140" height="30" as="geometry" />
        </mxCell>
        <mxCell id="WIe7WVRlitWbJ3u8N4tA-69" style="edgeStyle=orthogonalEdgeStyle;rounded=0;orthogonalLoop=1;jettySize=auto;html=1;exitX=0.5;exitY=0;exitDx=0;exitDy=0;dashed=1;endArrow=block;endFill=0;" parent="1" source="WIe7WVRlitWbJ3u8N4tA-22" target="WIe7WVRlitWbJ3u8N4tA-7" edge="1">
          <mxGeometry relative="1" as="geometry" />
        </mxCell>
        <mxCell id="WIe7WVRlitWbJ3u8N4tA-22" value="&lt;b&gt;PlainTextFormatter&lt;/b&gt;" style="swimlane;fontStyle=0;align=center;verticalAlign=top;childLayout=stackLayout;horizontal=1;startSize=30;horizontalStack=0;resizeParent=1;resizeParentMax=0;resizeLast=0;collapsible=0;marginBottom=0;html=1;whiteSpace=wrap;" parent="1" vertex="1">
          <mxGeometry x="210" y="300" width="200" height="58" as="geometry" />
        </mxCell>
        <mxCell id="WIe7WVRlitWbJ3u8N4tA-23" value="" style="line;strokeWidth=1;fillColor=none;align=left;verticalAlign=middle;spacingTop=-1;spacingLeft=3;spacingRight=3;rotatable=0;labelPosition=right;points=[];portConstraint=eastwest;" parent="WIe7WVRlitWbJ3u8N4tA-22" vertex="1">
          <mxGeometry y="30" width="200" height="8" as="geometry" />
        </mxCell>
        <mxCell id="WIe7WVRlitWbJ3u8N4tA-26" value="&lt;span style=&quot;text-align: center;&quot;&gt;+ format (text: String): String&lt;/span&gt;" style="text;html=1;strokeColor=none;fillColor=none;align=left;verticalAlign=middle;spacingLeft=4;spacingRight=4;overflow=hidden;rotatable=0;points=[[0,0.5],[1,0.5]];portConstraint=eastwest;whiteSpace=wrap;" parent="WIe7WVRlitWbJ3u8N4tA-22" vertex="1">
          <mxGeometry y="38" width="200" height="20" as="geometry" />
        </mxCell>
        <mxCell id="WIe7WVRlitWbJ3u8N4tA-68" style="edgeStyle=orthogonalEdgeStyle;rounded=0;orthogonalLoop=1;jettySize=auto;html=1;exitX=0.5;exitY=0;exitDx=0;exitDy=0;endArrow=block;endFill=0;dashed=1;" parent="1" source="WIe7WVRlitWbJ3u8N4tA-32" target="WIe7WVRlitWbJ3u8N4tA-7" edge="1">
          <mxGeometry relative="1" as="geometry" />
        </mxCell>
        <mxCell id="WIe7WVRlitWbJ3u8N4tA-32" value="&lt;b&gt;TextFormatterDecorator&lt;/b&gt;&lt;div&gt;&lt;b&gt;{abtract}&lt;/b&gt;&lt;/div&gt;" style="swimlane;fontStyle=0;align=center;verticalAlign=top;childLayout=stackLayout;horizontal=1;startSize=40;horizontalStack=0;resizeParent=1;resizeParentMax=0;resizeLast=0;collapsible=0;marginBottom=0;html=1;whiteSpace=wrap;" parent="1" vertex="1">
          <mxGeometry x="490" y="300" width="300" height="106" as="geometry" />
        </mxCell>
        <mxCell id="WIe7WVRlitWbJ3u8N4tA-46" value="&lt;div style=&quot;text-align: center;&quot;&gt;&lt;span style=&quot;background-color: initial;&quot;&gt;# formatter: TextFormatter&lt;/span&gt;&lt;/div&gt;" style="text;html=1;strokeColor=none;fillColor=none;align=left;verticalAlign=middle;spacingLeft=4;spacingRight=4;overflow=hidden;rotatable=0;points=[[0,0.5],[1,0.5]];portConstraint=eastwest;whiteSpace=wrap;" parent="WIe7WVRlitWbJ3u8N4tA-32" vertex="1">
          <mxGeometry y="40" width="300" height="20" as="geometry" />
        </mxCell>
        <mxCell id="WIe7WVRlitWbJ3u8N4tA-33" value="" style="line;strokeWidth=1;fillColor=none;align=left;verticalAlign=middle;spacingTop=-1;spacingLeft=3;spacingRight=3;rotatable=0;labelPosition=right;points=[];portConstraint=eastwest;" parent="WIe7WVRlitWbJ3u8N4tA-32" vertex="1">
          <mxGeometry y="60" width="300" height="8" as="geometry" />
        </mxCell>
        <mxCell id="WIe7WVRlitWbJ3u8N4tA-34" value="&lt;span style=&quot;text-align: center;&quot;&gt;+&amp;nbsp;&lt;/span&gt;&lt;b style=&quot;text-align: center;&quot;&gt;TextFormatterDecorator&lt;/b&gt;&lt;span style=&quot;text-align: center;&quot;&gt;&amp;nbsp;(formatter: TextFormatter)&lt;/span&gt;" style="text;html=1;strokeColor=none;fillColor=none;align=left;verticalAlign=middle;spacingLeft=4;spacingRight=4;overflow=hidden;rotatable=0;points=[[0,0.5],[1,0.5]];portConstraint=eastwest;whiteSpace=wrap;" parent="WIe7WVRlitWbJ3u8N4tA-32" vertex="1">
          <mxGeometry y="68" width="300" height="18" as="geometry" />
        </mxCell>
        <mxCell id="WIe7WVRlitWbJ3u8N4tA-36" value="+ format (text: String) : String" style="text;html=1;strokeColor=none;fillColor=none;align=left;verticalAlign=middle;spacingLeft=4;spacingRight=4;overflow=hidden;rotatable=0;points=[[0,0.5],[1,0.5]];portConstraint=eastwest;whiteSpace=wrap;" parent="WIe7WVRlitWbJ3u8N4tA-32" vertex="1">
          <mxGeometry y="86" width="300" height="20" as="geometry" />
        </mxCell>
        <mxCell id="WIe7WVRlitWbJ3u8N4tA-67" style="edgeStyle=orthogonalEdgeStyle;rounded=0;orthogonalLoop=1;jettySize=auto;html=1;exitX=0.5;exitY=0;exitDx=0;exitDy=0;endArrow=block;endFill=0;" parent="1" source="WIe7WVRlitWbJ3u8N4tA-55" target="WIe7WVRlitWbJ3u8N4tA-32" edge="1">
          <mxGeometry relative="1" as="geometry" />
        </mxCell>
        <mxCell id="WIe7WVRlitWbJ3u8N4tA-55" value="&lt;b&gt;BoldDecorator&lt;/b&gt;" style="swimlane;fontStyle=0;align=center;verticalAlign=top;childLayout=stackLayout;horizontal=1;startSize=30;horizontalStack=0;resizeParent=1;resizeParentMax=0;resizeLast=0;collapsible=0;marginBottom=0;html=1;whiteSpace=wrap;" parent="1" vertex="1">
          <mxGeometry x="220" y="530" width="260" height="76" as="geometry" />
        </mxCell>
        <mxCell id="WIe7WVRlitWbJ3u8N4tA-57" value="" style="line;strokeWidth=1;fillColor=none;align=left;verticalAlign=middle;spacingTop=-1;spacingLeft=3;spacingRight=3;rotatable=0;labelPosition=right;points=[];portConstraint=eastwest;" parent="WIe7WVRlitWbJ3u8N4tA-55" vertex="1">
          <mxGeometry y="30" width="260" height="8" as="geometry" />
        </mxCell>
        <mxCell id="WIe7WVRlitWbJ3u8N4tA-72" value="&lt;span style=&quot;text-align: center;&quot;&gt;+ Bold&lt;/span&gt;&lt;b style=&quot;text-align: center;&quot;&gt;Decorator&lt;/b&gt;&lt;span style=&quot;text-align: center;&quot;&gt;&amp;nbsp;(formatter: TextFormatter)&lt;/span&gt;" style="text;html=1;strokeColor=none;fillColor=none;align=left;verticalAlign=middle;spacingLeft=4;spacingRight=4;overflow=hidden;rotatable=0;points=[[0,0.5],[1,0.5]];portConstraint=eastwest;whiteSpace=wrap;" parent="WIe7WVRlitWbJ3u8N4tA-55" vertex="1">
          <mxGeometry y="38" width="260" height="18" as="geometry" />
        </mxCell>
        <mxCell id="WIe7WVRlitWbJ3u8N4tA-73" value="+ format (text: String) : String" style="text;html=1;strokeColor=none;fillColor=none;align=left;verticalAlign=middle;spacingLeft=4;spacingRight=4;overflow=hidden;rotatable=0;points=[[0,0.5],[1,0.5]];portConstraint=eastwest;whiteSpace=wrap;" parent="WIe7WVRlitWbJ3u8N4tA-55" vertex="1">
          <mxGeometry y="56" width="260" height="20" as="geometry" />
        </mxCell>
        <mxCell id="WIe7WVRlitWbJ3u8N4tA-71" style="edgeStyle=orthogonalEdgeStyle;rounded=0;orthogonalLoop=1;jettySize=auto;html=1;exitX=1;exitY=0.5;exitDx=0;exitDy=0;endArrow=openThin;endFill=0;startArrow=diamondThin;startFill=0;" parent="1" source="WIe7WVRlitWbJ3u8N4tA-46" target="WIe7WVRlitWbJ3u8N4tA-12" edge="1">
          <mxGeometry relative="1" as="geometry" />
        </mxCell>
        <mxCell id="WIe7WVRlitWbJ3u8N4tA-82" style="edgeStyle=orthogonalEdgeStyle;rounded=0;orthogonalLoop=1;jettySize=auto;html=1;exitX=0.5;exitY=0;exitDx=0;exitDy=0;endArrow=block;endFill=0;" parent="1" source="WIe7WVRlitWbJ3u8N4tA-74" target="WIe7WVRlitWbJ3u8N4tA-32" edge="1">
          <mxGeometry relative="1" as="geometry" />
        </mxCell>
        <mxCell id="WIe7WVRlitWbJ3u8N4tA-74" value="&lt;b&gt;ItalicDecorator&lt;/b&gt;" style="swimlane;fontStyle=0;align=center;verticalAlign=top;childLayout=stackLayout;horizontal=1;startSize=30;horizontalStack=0;resizeParent=1;resizeParentMax=0;resizeLast=0;collapsible=0;marginBottom=0;html=1;whiteSpace=wrap;" parent="1" vertex="1">
          <mxGeometry x="510" y="530" width="260" height="76" as="geometry" />
        </mxCell>
        <mxCell id="WIe7WVRlitWbJ3u8N4tA-75" value="" style="line;strokeWidth=1;fillColor=none;align=left;verticalAlign=middle;spacingTop=-1;spacingLeft=3;spacingRight=3;rotatable=0;labelPosition=right;points=[];portConstraint=eastwest;" parent="WIe7WVRlitWbJ3u8N4tA-74" vertex="1">
          <mxGeometry y="30" width="260" height="8" as="geometry" />
        </mxCell>
        <mxCell id="WIe7WVRlitWbJ3u8N4tA-76" value="&lt;span style=&quot;text-align: center;&quot;&gt;+ Italic&lt;/span&gt;&lt;b style=&quot;text-align: center;&quot;&gt;Decorator&lt;/b&gt;&lt;span style=&quot;text-align: center;&quot;&gt;&amp;nbsp;(formatter: TextFormatter)&lt;/span&gt;" style="text;html=1;strokeColor=none;fillColor=none;align=left;verticalAlign=middle;spacingLeft=4;spacingRight=4;overflow=hidden;rotatable=0;points=[[0,0.5],[1,0.5]];portConstraint=eastwest;whiteSpace=wrap;" parent="WIe7WVRlitWbJ3u8N4tA-74" vertex="1">
          <mxGeometry y="38" width="260" height="18" as="geometry" />
        </mxCell>
        <mxCell id="WIe7WVRlitWbJ3u8N4tA-77" value="+ format (text: String) : String" style="text;html=1;strokeColor=none;fillColor=none;align=left;verticalAlign=middle;spacingLeft=4;spacingRight=4;overflow=hidden;rotatable=0;points=[[0,0.5],[1,0.5]];portConstraint=eastwest;whiteSpace=wrap;" parent="WIe7WVRlitWbJ3u8N4tA-74" vertex="1">
          <mxGeometry y="56" width="260" height="20" as="geometry" />
        </mxCell>
        <mxCell id="WIe7WVRlitWbJ3u8N4tA-83" style="edgeStyle=orthogonalEdgeStyle;rounded=0;orthogonalLoop=1;jettySize=auto;html=1;exitX=0.5;exitY=0;exitDx=0;exitDy=0;endArrow=block;endFill=0;" parent="1" source="WIe7WVRlitWbJ3u8N4tA-78" target="WIe7WVRlitWbJ3u8N4tA-32" edge="1">
          <mxGeometry relative="1" as="geometry" />
        </mxCell>
        <mxCell id="WIe7WVRlitWbJ3u8N4tA-78" value="&lt;b&gt;UnderlineDecorator&lt;/b&gt;" style="swimlane;fontStyle=0;align=center;verticalAlign=top;childLayout=stackLayout;horizontal=1;startSize=30;horizontalStack=0;resizeParent=1;resizeParentMax=0;resizeLast=0;collapsible=0;marginBottom=0;html=1;whiteSpace=wrap;" parent="1" vertex="1">
          <mxGeometry x="800" y="530" width="270" height="76" as="geometry" />
        </mxCell>
        <mxCell id="WIe7WVRlitWbJ3u8N4tA-79" value="" style="line;strokeWidth=1;fillColor=none;align=left;verticalAlign=middle;spacingTop=-1;spacingLeft=3;spacingRight=3;rotatable=0;labelPosition=right;points=[];portConstraint=eastwest;" parent="WIe7WVRlitWbJ3u8N4tA-78" vertex="1">
          <mxGeometry y="30" width="270" height="8" as="geometry" />
        </mxCell>
        <mxCell id="WIe7WVRlitWbJ3u8N4tA-80" value="&lt;span style=&quot;text-align: center;&quot;&gt;+ Underline&lt;/span&gt;&lt;b style=&quot;text-align: center;&quot;&gt;Decorator&lt;/b&gt;&lt;span style=&quot;text-align: center;&quot;&gt;&amp;nbsp;(formatter: TextFormatter)&lt;/span&gt;" style="text;html=1;strokeColor=none;fillColor=none;align=left;verticalAlign=middle;spacingLeft=4;spacingRight=4;overflow=hidden;rotatable=0;points=[[0,0.5],[1,0.5]];portConstraint=eastwest;whiteSpace=wrap;" parent="WIe7WVRlitWbJ3u8N4tA-78" vertex="1">
          <mxGeometry y="38" width="270" height="18" as="geometry" />
        </mxCell>
        <mxCell id="WIe7WVRlitWbJ3u8N4tA-81" value="+ format (text: String) : String" style="text;html=1;strokeColor=none;fillColor=none;align=left;verticalAlign=middle;spacingLeft=4;spacingRight=4;overflow=hidden;rotatable=0;points=[[0,0.5],[1,0.5]];portConstraint=eastwest;whiteSpace=wrap;" parent="WIe7WVRlitWbJ3u8N4tA-78" vertex="1">
          <mxGeometry y="56" width="270" height="20" as="geometry" />
        </mxCell>
      </root>
    </mxGraphModel>
  </diagram>
</mxfile>
